<mxfile host="app.diagrams.net" modified="2021-04-19T14:11:49.106Z" agent="5.0 (Windows NT 10.0; WOW64) AppleWebKit/537.36 (KHTML, like Gecko) Chrome/86.0.4240.75 Safari/537.36" etag="NMzmtPoUi_vwsYqF8ghy" version="14.4.8" type="github">
  <diagram id="Q8OWI2HvfyvaIv8AVOIq" name="Page-1">
    <mxGraphModel dx="1303" dy="688" grid="1" gridSize="10" guides="1" tooltips="1" connect="1" arrows="1" fold="1" page="1" pageScale="1" pageWidth="4500" pageHeight="4681" math="0" shadow="0">
      <root>
        <mxCell id="0" />
        <mxCell id="1" parent="0" />
        <mxCell id="cmzhFVV2WVKwGKOXvyXr-2" value="需求调研" style="swimlane;fontStyle=0;childLayout=stackLayout;horizontal=1;startSize=26;fillColor=#dae8fc;horizontalStack=0;resizeParent=1;resizeParentMax=0;resizeLast=0;collapsible=1;marginBottom=0;strokeColor=#6c8ebf;" vertex="1" parent="1">
          <mxGeometry x="20" y="320" width="150" height="100" as="geometry" />
        </mxCell>
        <mxCell id="cmzhFVV2WVKwGKOXvyXr-3" value="预期开始时间：2021/3/10" style="text;strokeColor=none;fillColor=none;align=left;verticalAlign=top;spacingLeft=4;spacingRight=4;overflow=hidden;rotatable=0;points=[[0,0.5],[1,0.5]];portConstraint=eastwest;" vertex="1" parent="cmzhFVV2WVKwGKOXvyXr-2">
          <mxGeometry y="26" width="150" height="26" as="geometry" />
        </mxCell>
        <mxCell id="cmzhFVV2WVKwGKOXvyXr-4" value="预期结束时间：2021/3/24" style="text;strokeColor=none;fillColor=none;align=left;verticalAlign=top;spacingLeft=4;spacingRight=4;overflow=hidden;rotatable=0;points=[[0,0.5],[1,0.5]];portConstraint=eastwest;" vertex="1" parent="cmzhFVV2WVKwGKOXvyXr-2">
          <mxGeometry y="52" width="150" height="26" as="geometry" />
        </mxCell>
        <mxCell id="cmzhFVV2WVKwGKOXvyXr-5" value="预期投入天数：15" style="text;strokeColor=none;fillColor=none;align=left;verticalAlign=top;spacingLeft=4;spacingRight=4;overflow=hidden;rotatable=0;points=[[0,0.5],[1,0.5]];portConstraint=eastwest;" vertex="1" parent="cmzhFVV2WVKwGKOXvyXr-2">
          <mxGeometry y="78" width="150" height="22" as="geometry" />
        </mxCell>
        <mxCell id="cmzhFVV2WVKwGKOXvyXr-6" value="需求分析" style="swimlane;fontStyle=0;childLayout=stackLayout;horizontal=1;startSize=26;fillColor=#dae8fc;horizontalStack=0;resizeParent=1;resizeParentMax=0;resizeLast=0;collapsible=1;marginBottom=0;strokeColor=#6c8ebf;" vertex="1" parent="1">
          <mxGeometry x="240" y="320" width="150" height="100" as="geometry" />
        </mxCell>
        <mxCell id="cmzhFVV2WVKwGKOXvyXr-7" value="预期开始时间：2021/3/25" style="text;strokeColor=none;fillColor=none;align=left;verticalAlign=top;spacingLeft=4;spacingRight=4;overflow=hidden;rotatable=0;points=[[0,0.5],[1,0.5]];portConstraint=eastwest;" vertex="1" parent="cmzhFVV2WVKwGKOXvyXr-6">
          <mxGeometry y="26" width="150" height="26" as="geometry" />
        </mxCell>
        <mxCell id="cmzhFVV2WVKwGKOXvyXr-8" value="预期结束时间：2021/4/7" style="text;strokeColor=none;fillColor=none;align=left;verticalAlign=top;spacingLeft=4;spacingRight=4;overflow=hidden;rotatable=0;points=[[0,0.5],[1,0.5]];portConstraint=eastwest;" vertex="1" parent="cmzhFVV2WVKwGKOXvyXr-6">
          <mxGeometry y="52" width="150" height="26" as="geometry" />
        </mxCell>
        <mxCell id="cmzhFVV2WVKwGKOXvyXr-9" value="预期投入天数：11" style="text;strokeColor=none;fillColor=none;align=left;verticalAlign=top;spacingLeft=4;spacingRight=4;overflow=hidden;rotatable=0;points=[[0,0.5],[1,0.5]];portConstraint=eastwest;" vertex="1" parent="cmzhFVV2WVKwGKOXvyXr-6">
          <mxGeometry y="78" width="150" height="22" as="geometry" />
        </mxCell>
        <mxCell id="cmzhFVV2WVKwGKOXvyXr-87" style="edgeStyle=orthogonalEdgeStyle;rounded=0;orthogonalLoop=1;jettySize=auto;html=1;exitX=1;exitY=0;exitDx=0;exitDy=0;entryX=0;entryY=0.5;entryDx=0;entryDy=0;" edge="1" parent="1" source="cmzhFVV2WVKwGKOXvyXr-10" target="cmzhFVV2WVKwGKOXvyXr-15">
          <mxGeometry relative="1" as="geometry" />
        </mxCell>
        <mxCell id="cmzhFVV2WVKwGKOXvyXr-10" value="概要设计" style="swimlane;fontStyle=0;childLayout=stackLayout;horizontal=1;startSize=26;fillColor=#dae8fc;horizontalStack=0;resizeParent=1;resizeParentMax=0;resizeLast=0;collapsible=1;marginBottom=0;strokeColor=#6c8ebf;" vertex="1" parent="1">
          <mxGeometry x="460" y="320" width="150" height="100" as="geometry" />
        </mxCell>
        <mxCell id="cmzhFVV2WVKwGKOXvyXr-11" value="预期开始时间：2021/4/8" style="text;strokeColor=none;fillColor=none;align=left;verticalAlign=top;spacingLeft=4;spacingRight=4;overflow=hidden;rotatable=0;points=[[0,0.5],[1,0.5]];portConstraint=eastwest;" vertex="1" parent="cmzhFVV2WVKwGKOXvyXr-10">
          <mxGeometry y="26" width="150" height="26" as="geometry" />
        </mxCell>
        <mxCell id="cmzhFVV2WVKwGKOXvyXr-12" value="预期结束时间：2021/4/14" style="text;strokeColor=none;fillColor=none;align=left;verticalAlign=top;spacingLeft=4;spacingRight=4;overflow=hidden;rotatable=0;points=[[0,0.5],[1,0.5]];portConstraint=eastwest;" vertex="1" parent="cmzhFVV2WVKwGKOXvyXr-10">
          <mxGeometry y="52" width="150" height="26" as="geometry" />
        </mxCell>
        <mxCell id="cmzhFVV2WVKwGKOXvyXr-13" value="预期投入天数：7" style="text;strokeColor=none;fillColor=none;align=left;verticalAlign=top;spacingLeft=4;spacingRight=4;overflow=hidden;rotatable=0;points=[[0,0.5],[1,0.5]];portConstraint=eastwest;" vertex="1" parent="cmzhFVV2WVKwGKOXvyXr-10">
          <mxGeometry y="78" width="150" height="22" as="geometry" />
        </mxCell>
        <mxCell id="cmzhFVV2WVKwGKOXvyXr-14" value="架构设计" style="swimlane;fontStyle=0;childLayout=stackLayout;horizontal=1;startSize=26;fillColor=#dae8fc;horizontalStack=0;resizeParent=1;resizeParentMax=0;resizeLast=0;collapsible=1;marginBottom=0;strokeColor=#6c8ebf;" vertex="1" parent="1">
          <mxGeometry x="783" y="70" width="150" height="100" as="geometry" />
        </mxCell>
        <mxCell id="cmzhFVV2WVKwGKOXvyXr-15" value="预期开始时间：2021/4/8" style="text;strokeColor=none;fillColor=none;align=left;verticalAlign=top;spacingLeft=4;spacingRight=4;overflow=hidden;rotatable=0;points=[[0,0.5],[1,0.5]];portConstraint=eastwest;" vertex="1" parent="cmzhFVV2WVKwGKOXvyXr-14">
          <mxGeometry y="26" width="150" height="26" as="geometry" />
        </mxCell>
        <mxCell id="cmzhFVV2WVKwGKOXvyXr-16" value="预期结束时间：2021/4/9" style="text;strokeColor=none;fillColor=none;align=left;verticalAlign=top;spacingLeft=4;spacingRight=4;overflow=hidden;rotatable=0;points=[[0,0.5],[1,0.5]];portConstraint=eastwest;" vertex="1" parent="cmzhFVV2WVKwGKOXvyXr-14">
          <mxGeometry y="52" width="150" height="26" as="geometry" />
        </mxCell>
        <mxCell id="cmzhFVV2WVKwGKOXvyXr-17" value="预期投入天数：2" style="text;strokeColor=none;fillColor=none;align=left;verticalAlign=top;spacingLeft=4;spacingRight=4;overflow=hidden;rotatable=0;points=[[0,0.5],[1,0.5]];portConstraint=eastwest;" vertex="1" parent="cmzhFVV2WVKwGKOXvyXr-14">
          <mxGeometry y="78" width="150" height="22" as="geometry" />
        </mxCell>
        <mxCell id="cmzhFVV2WVKwGKOXvyXr-18" value="接口设计" style="swimlane;fontStyle=0;childLayout=stackLayout;horizontal=1;startSize=26;fillColor=#dae8fc;horizontalStack=0;resizeParent=1;resizeParentMax=0;resizeLast=0;collapsible=1;marginBottom=0;strokeColor=#6c8ebf;" vertex="1" parent="1">
          <mxGeometry x="783" y="230" width="150" height="100" as="geometry" />
        </mxCell>
        <mxCell id="cmzhFVV2WVKwGKOXvyXr-19" value="预期开始时间：2021/4/10" style="text;strokeColor=none;fillColor=none;align=left;verticalAlign=top;spacingLeft=4;spacingRight=4;overflow=hidden;rotatable=0;points=[[0,0.5],[1,0.5]];portConstraint=eastwest;" vertex="1" parent="cmzhFVV2WVKwGKOXvyXr-18">
          <mxGeometry y="26" width="150" height="26" as="geometry" />
        </mxCell>
        <mxCell id="cmzhFVV2WVKwGKOXvyXr-20" value="预期结束时间：2021/4/11" style="text;strokeColor=none;fillColor=none;align=left;verticalAlign=top;spacingLeft=4;spacingRight=4;overflow=hidden;rotatable=0;points=[[0,0.5],[1,0.5]];portConstraint=eastwest;" vertex="1" parent="cmzhFVV2WVKwGKOXvyXr-18">
          <mxGeometry y="52" width="150" height="26" as="geometry" />
        </mxCell>
        <mxCell id="cmzhFVV2WVKwGKOXvyXr-21" value="预期投入天数：2" style="text;strokeColor=none;fillColor=none;align=left;verticalAlign=top;spacingLeft=4;spacingRight=4;overflow=hidden;rotatable=0;points=[[0,0.5],[1,0.5]];portConstraint=eastwest;" vertex="1" parent="cmzhFVV2WVKwGKOXvyXr-18">
          <mxGeometry y="78" width="150" height="22" as="geometry" />
        </mxCell>
        <mxCell id="cmzhFVV2WVKwGKOXvyXr-22" value="数据库设计" style="swimlane;fontStyle=0;childLayout=stackLayout;horizontal=1;startSize=26;fillColor=#dae8fc;horizontalStack=0;resizeParent=1;resizeParentMax=0;resizeLast=0;collapsible=1;marginBottom=0;strokeColor=#6c8ebf;" vertex="1" parent="1">
          <mxGeometry x="783" y="400" width="150" height="100" as="geometry" />
        </mxCell>
        <mxCell id="cmzhFVV2WVKwGKOXvyXr-23" value="预期开始时间：2021/4/12" style="text;strokeColor=none;fillColor=none;align=left;verticalAlign=top;spacingLeft=4;spacingRight=4;overflow=hidden;rotatable=0;points=[[0,0.5],[1,0.5]];portConstraint=eastwest;" vertex="1" parent="cmzhFVV2WVKwGKOXvyXr-22">
          <mxGeometry y="26" width="150" height="26" as="geometry" />
        </mxCell>
        <mxCell id="cmzhFVV2WVKwGKOXvyXr-24" value="预期结束时间：2021/4/12" style="text;strokeColor=none;fillColor=none;align=left;verticalAlign=top;spacingLeft=4;spacingRight=4;overflow=hidden;rotatable=0;points=[[0,0.5],[1,0.5]];portConstraint=eastwest;" vertex="1" parent="cmzhFVV2WVKwGKOXvyXr-22">
          <mxGeometry y="52" width="150" height="26" as="geometry" />
        </mxCell>
        <mxCell id="cmzhFVV2WVKwGKOXvyXr-25" value="预期投入天数：1" style="text;strokeColor=none;fillColor=none;align=left;verticalAlign=top;spacingLeft=4;spacingRight=4;overflow=hidden;rotatable=0;points=[[0,0.5],[1,0.5]];portConstraint=eastwest;" vertex="1" parent="cmzhFVV2WVKwGKOXvyXr-22">
          <mxGeometry y="78" width="150" height="22" as="geometry" />
        </mxCell>
        <mxCell id="cmzhFVV2WVKwGKOXvyXr-26" value="用户界面设计" style="swimlane;fontStyle=0;childLayout=stackLayout;horizontal=1;startSize=26;fillColor=#dae8fc;horizontalStack=0;resizeParent=1;resizeParentMax=0;resizeLast=0;collapsible=1;marginBottom=0;strokeColor=#6c8ebf;" vertex="1" parent="1">
          <mxGeometry x="783" y="560" width="150" height="100" as="geometry" />
        </mxCell>
        <mxCell id="cmzhFVV2WVKwGKOXvyXr-27" value="预期开始时间：2021/4/13" style="text;strokeColor=none;fillColor=none;align=left;verticalAlign=top;spacingLeft=4;spacingRight=4;overflow=hidden;rotatable=0;points=[[0,0.5],[1,0.5]];portConstraint=eastwest;" vertex="1" parent="cmzhFVV2WVKwGKOXvyXr-26">
          <mxGeometry y="26" width="150" height="26" as="geometry" />
        </mxCell>
        <mxCell id="cmzhFVV2WVKwGKOXvyXr-28" value="预期结束时间：2021/4/14" style="text;strokeColor=none;fillColor=none;align=left;verticalAlign=top;spacingLeft=4;spacingRight=4;overflow=hidden;rotatable=0;points=[[0,0.5],[1,0.5]];portConstraint=eastwest;" vertex="1" parent="cmzhFVV2WVKwGKOXvyXr-26">
          <mxGeometry y="52" width="150" height="26" as="geometry" />
        </mxCell>
        <mxCell id="cmzhFVV2WVKwGKOXvyXr-29" value="预期投入天数：2" style="text;strokeColor=none;fillColor=none;align=left;verticalAlign=top;spacingLeft=4;spacingRight=4;overflow=hidden;rotatable=0;points=[[0,0.5],[1,0.5]];portConstraint=eastwest;" vertex="1" parent="cmzhFVV2WVKwGKOXvyXr-26">
          <mxGeometry y="78" width="150" height="22" as="geometry" />
        </mxCell>
        <mxCell id="cmzhFVV2WVKwGKOXvyXr-95" style="edgeStyle=orthogonalEdgeStyle;rounded=0;orthogonalLoop=1;jettySize=auto;html=1;exitX=1;exitY=0.5;exitDx=0;exitDy=0;entryX=0;entryY=0.5;entryDx=0;entryDy=0;" edge="1" parent="1" source="cmzhFVV2WVKwGKOXvyXr-30" target="cmzhFVV2WVKwGKOXvyXr-33">
          <mxGeometry relative="1" as="geometry" />
        </mxCell>
        <mxCell id="cmzhFVV2WVKwGKOXvyXr-30" value="概要设计结束" style="rounded=0;whiteSpace=wrap;html=1;fillColor=#dae8fc;strokeColor=#6c8ebf;" vertex="1" parent="1">
          <mxGeometry x="1110" y="340" width="120" height="60" as="geometry" />
        </mxCell>
        <mxCell id="cmzhFVV2WVKwGKOXvyXr-31" value="详细设计" style="swimlane;fontStyle=0;childLayout=stackLayout;horizontal=1;startSize=26;fillColor=#dae8fc;horizontalStack=0;resizeParent=1;resizeParentMax=0;resizeLast=0;collapsible=1;marginBottom=0;strokeColor=#6c8ebf;" vertex="1" parent="1">
          <mxGeometry x="1340" y="320" width="150" height="100" as="geometry" />
        </mxCell>
        <mxCell id="cmzhFVV2WVKwGKOXvyXr-32" value="预期开始时间：2021/4/15" style="text;strokeColor=none;fillColor=none;align=left;verticalAlign=top;spacingLeft=4;spacingRight=4;overflow=hidden;rotatable=0;points=[[0,0.5],[1,0.5]];portConstraint=eastwest;" vertex="1" parent="cmzhFVV2WVKwGKOXvyXr-31">
          <mxGeometry y="26" width="150" height="26" as="geometry" />
        </mxCell>
        <mxCell id="cmzhFVV2WVKwGKOXvyXr-33" value="预期结束时间：2021/4/21" style="text;strokeColor=none;fillColor=none;align=left;verticalAlign=top;spacingLeft=4;spacingRight=4;overflow=hidden;rotatable=0;points=[[0,0.5],[1,0.5]];portConstraint=eastwest;" vertex="1" parent="cmzhFVV2WVKwGKOXvyXr-31">
          <mxGeometry y="52" width="150" height="26" as="geometry" />
        </mxCell>
        <mxCell id="cmzhFVV2WVKwGKOXvyXr-34" value="预期投入天数：7" style="text;strokeColor=none;fillColor=none;align=left;verticalAlign=top;spacingLeft=4;spacingRight=4;overflow=hidden;rotatable=0;points=[[0,0.5],[1,0.5]];portConstraint=eastwest;" vertex="1" parent="cmzhFVV2WVKwGKOXvyXr-31">
          <mxGeometry y="78" width="150" height="22" as="geometry" />
        </mxCell>
        <mxCell id="cmzhFVV2WVKwGKOXvyXr-35" value="编码" style="swimlane;fontStyle=0;childLayout=stackLayout;horizontal=1;startSize=26;fillColor=#dae8fc;horizontalStack=0;resizeParent=1;resizeParentMax=0;resizeLast=0;collapsible=1;marginBottom=0;strokeColor=#6c8ebf;" vertex="1" parent="1">
          <mxGeometry x="1620" y="320" width="150" height="100" as="geometry" />
        </mxCell>
        <mxCell id="cmzhFVV2WVKwGKOXvyXr-36" value="预期开始时间：2021/4/22" style="text;strokeColor=none;fillColor=none;align=left;verticalAlign=top;spacingLeft=4;spacingRight=4;overflow=hidden;rotatable=0;points=[[0,0.5],[1,0.5]];portConstraint=eastwest;" vertex="1" parent="cmzhFVV2WVKwGKOXvyXr-35">
          <mxGeometry y="26" width="150" height="26" as="geometry" />
        </mxCell>
        <mxCell id="cmzhFVV2WVKwGKOXvyXr-37" value="预期结束时间：2021/5/17" style="text;strokeColor=none;fillColor=none;align=left;verticalAlign=top;spacingLeft=4;spacingRight=4;overflow=hidden;rotatable=0;points=[[0,0.5],[1,0.5]];portConstraint=eastwest;" vertex="1" parent="cmzhFVV2WVKwGKOXvyXr-35">
          <mxGeometry y="52" width="150" height="26" as="geometry" />
        </mxCell>
        <mxCell id="cmzhFVV2WVKwGKOXvyXr-38" value="预期投入天数：21" style="text;strokeColor=none;fillColor=none;align=left;verticalAlign=top;spacingLeft=4;spacingRight=4;overflow=hidden;rotatable=0;points=[[0,0.5],[1,0.5]];portConstraint=eastwest;" vertex="1" parent="cmzhFVV2WVKwGKOXvyXr-35">
          <mxGeometry y="78" width="150" height="22" as="geometry" />
        </mxCell>
        <mxCell id="cmzhFVV2WVKwGKOXvyXr-39" value="UI界面和部分功能开发" style="swimlane;fontStyle=0;childLayout=stackLayout;horizontal=1;startSize=26;fillColor=#dae8fc;horizontalStack=0;resizeParent=1;resizeParentMax=0;resizeLast=0;collapsible=1;marginBottom=0;strokeColor=#6c8ebf;" vertex="1" parent="1">
          <mxGeometry x="1920" y="200" width="150" height="102" as="geometry" />
        </mxCell>
        <mxCell id="cmzhFVV2WVKwGKOXvyXr-40" value="预期开始时间：2021/4/22" style="text;strokeColor=none;fillColor=none;align=left;verticalAlign=top;spacingLeft=4;spacingRight=4;overflow=hidden;rotatable=0;points=[[0,0.5],[1,0.5]];portConstraint=eastwest;" vertex="1" parent="cmzhFVV2WVKwGKOXvyXr-39">
          <mxGeometry y="26" width="150" height="26" as="geometry" />
        </mxCell>
        <mxCell id="cmzhFVV2WVKwGKOXvyXr-41" value="预期结束时间：2021/4/28" style="text;strokeColor=none;fillColor=none;align=left;verticalAlign=top;spacingLeft=4;spacingRight=4;overflow=hidden;rotatable=0;points=[[0,0.5],[1,0.5]];portConstraint=eastwest;" vertex="1" parent="cmzhFVV2WVKwGKOXvyXr-39">
          <mxGeometry y="52" width="150" height="28" as="geometry" />
        </mxCell>
        <mxCell id="cmzhFVV2WVKwGKOXvyXr-42" value="预期投入天数：7" style="text;strokeColor=none;fillColor=none;align=left;verticalAlign=top;spacingLeft=4;spacingRight=4;overflow=hidden;rotatable=0;points=[[0,0.5],[1,0.5]];portConstraint=eastwest;" vertex="1" parent="cmzhFVV2WVKwGKOXvyXr-39">
          <mxGeometry y="80" width="150" height="22" as="geometry" />
        </mxCell>
        <mxCell id="cmzhFVV2WVKwGKOXvyXr-43" value="聊天、车距选择、车队管理等功能开发" style="swimlane;fontStyle=0;childLayout=stackLayout;horizontal=1;startSize=26;fillColor=#dae8fc;horizontalStack=0;resizeParent=1;resizeParentMax=0;resizeLast=0;collapsible=1;marginBottom=0;strokeColor=#6c8ebf;whiteSpace=wrap;" vertex="1" parent="1">
          <mxGeometry x="1920" y="430" width="150" height="100" as="geometry" />
        </mxCell>
        <mxCell id="cmzhFVV2WVKwGKOXvyXr-44" value="预期开始时间：2021/4/29" style="text;strokeColor=none;fillColor=none;align=left;verticalAlign=top;spacingLeft=4;spacingRight=4;overflow=hidden;rotatable=0;points=[[0,0.5],[1,0.5]];portConstraint=eastwest;" vertex="1" parent="cmzhFVV2WVKwGKOXvyXr-43">
          <mxGeometry y="26" width="150" height="26" as="geometry" />
        </mxCell>
        <mxCell id="cmzhFVV2WVKwGKOXvyXr-45" value="预期结束时间：2021/5/17" style="text;strokeColor=none;fillColor=none;align=left;verticalAlign=top;spacingLeft=4;spacingRight=4;overflow=hidden;rotatable=0;points=[[0,0.5],[1,0.5]];portConstraint=eastwest;" vertex="1" parent="cmzhFVV2WVKwGKOXvyXr-43">
          <mxGeometry y="52" width="150" height="26" as="geometry" />
        </mxCell>
        <mxCell id="cmzhFVV2WVKwGKOXvyXr-46" value="预期投入天数：14" style="text;strokeColor=none;fillColor=none;align=left;verticalAlign=top;spacingLeft=4;spacingRight=4;overflow=hidden;rotatable=0;points=[[0,0.5],[1,0.5]];portConstraint=eastwest;" vertex="1" parent="cmzhFVV2WVKwGKOXvyXr-43">
          <mxGeometry y="78" width="150" height="22" as="geometry" />
        </mxCell>
        <mxCell id="cmzhFVV2WVKwGKOXvyXr-101" style="edgeStyle=orthogonalEdgeStyle;rounded=0;orthogonalLoop=1;jettySize=auto;html=1;exitX=1;exitY=0.5;exitDx=0;exitDy=0;entryX=0;entryY=0.5;entryDx=0;entryDy=0;" edge="1" parent="1" source="cmzhFVV2WVKwGKOXvyXr-49" target="cmzhFVV2WVKwGKOXvyXr-52">
          <mxGeometry relative="1" as="geometry" />
        </mxCell>
        <mxCell id="cmzhFVV2WVKwGKOXvyXr-49" value="编码结束" style="rounded=1;whiteSpace=wrap;html=1;fillColor=#dae8fc;strokeColor=#6c8ebf;" vertex="1" parent="1">
          <mxGeometry x="2240" y="340" width="120" height="60" as="geometry" />
        </mxCell>
        <mxCell id="cmzhFVV2WVKwGKOXvyXr-102" style="edgeStyle=orthogonalEdgeStyle;rounded=0;orthogonalLoop=1;jettySize=auto;html=1;exitX=1;exitY=0.25;exitDx=0;exitDy=0;entryX=0;entryY=0.5;entryDx=0;entryDy=0;" edge="1" parent="1" source="cmzhFVV2WVKwGKOXvyXr-50" target="cmzhFVV2WVKwGKOXvyXr-55">
          <mxGeometry relative="1" as="geometry" />
        </mxCell>
        <mxCell id="cmzhFVV2WVKwGKOXvyXr-50" value="测试" style="swimlane;fontStyle=0;childLayout=stackLayout;horizontal=1;startSize=26;fillColor=#dae8fc;horizontalStack=0;resizeParent=1;resizeParentMax=0;resizeLast=0;collapsible=1;marginBottom=0;strokeColor=#6c8ebf;" vertex="1" parent="1">
          <mxGeometry x="2510" y="320" width="150" height="100" as="geometry" />
        </mxCell>
        <mxCell id="cmzhFVV2WVKwGKOXvyXr-51" value="预期开始时间：2021/5/18" style="text;strokeColor=none;fillColor=none;align=left;verticalAlign=top;spacingLeft=4;spacingRight=4;overflow=hidden;rotatable=0;points=[[0,0.5],[1,0.5]];portConstraint=eastwest;" vertex="1" parent="cmzhFVV2WVKwGKOXvyXr-50">
          <mxGeometry y="26" width="150" height="26" as="geometry" />
        </mxCell>
        <mxCell id="cmzhFVV2WVKwGKOXvyXr-52" value="预期结束时间：2021/5/21" style="text;strokeColor=none;fillColor=none;align=left;verticalAlign=top;spacingLeft=4;spacingRight=4;overflow=hidden;rotatable=0;points=[[0,0.5],[1,0.5]];portConstraint=eastwest;" vertex="1" parent="cmzhFVV2WVKwGKOXvyXr-50">
          <mxGeometry y="52" width="150" height="26" as="geometry" />
        </mxCell>
        <mxCell id="cmzhFVV2WVKwGKOXvyXr-53" value="预期投入天数：4" style="text;strokeColor=none;fillColor=none;align=left;verticalAlign=top;spacingLeft=4;spacingRight=4;overflow=hidden;rotatable=0;points=[[0,0.5],[1,0.5]];portConstraint=eastwest;" vertex="1" parent="cmzhFVV2WVKwGKOXvyXr-50">
          <mxGeometry y="78" width="150" height="22" as="geometry" />
        </mxCell>
        <mxCell id="cmzhFVV2WVKwGKOXvyXr-54" value="单元测试" style="swimlane;fontStyle=0;childLayout=stackLayout;horizontal=1;startSize=26;fillColor=#dae8fc;horizontalStack=0;resizeParent=1;resizeParentMax=0;resizeLast=0;collapsible=1;marginBottom=0;strokeColor=#6c8ebf;" vertex="1" parent="1">
          <mxGeometry x="2780" y="120" width="150" height="100" as="geometry" />
        </mxCell>
        <mxCell id="cmzhFVV2WVKwGKOXvyXr-55" value="预期开始时间：2021/5.18" style="text;strokeColor=none;fillColor=none;align=left;verticalAlign=top;spacingLeft=4;spacingRight=4;overflow=hidden;rotatable=0;points=[[0,0.5],[1,0.5]];portConstraint=eastwest;" vertex="1" parent="cmzhFVV2WVKwGKOXvyXr-54">
          <mxGeometry y="26" width="150" height="26" as="geometry" />
        </mxCell>
        <mxCell id="cmzhFVV2WVKwGKOXvyXr-56" value="预期结束时间：2021/5/18" style="text;strokeColor=none;fillColor=none;align=left;verticalAlign=top;spacingLeft=4;spacingRight=4;overflow=hidden;rotatable=0;points=[[0,0.5],[1,0.5]];portConstraint=eastwest;" vertex="1" parent="cmzhFVV2WVKwGKOXvyXr-54">
          <mxGeometry y="52" width="150" height="26" as="geometry" />
        </mxCell>
        <mxCell id="cmzhFVV2WVKwGKOXvyXr-57" value="预期投入天数：1" style="text;strokeColor=none;fillColor=none;align=left;verticalAlign=top;spacingLeft=4;spacingRight=4;overflow=hidden;rotatable=0;points=[[0,0.5],[1,0.5]];portConstraint=eastwest;" vertex="1" parent="cmzhFVV2WVKwGKOXvyXr-54">
          <mxGeometry y="78" width="150" height="22" as="geometry" />
        </mxCell>
        <mxCell id="cmzhFVV2WVKwGKOXvyXr-58" value="系统测试" style="swimlane;fontStyle=0;childLayout=stackLayout;horizontal=1;startSize=26;fillColor=#dae8fc;horizontalStack=0;resizeParent=1;resizeParentMax=0;resizeLast=0;collapsible=1;marginBottom=0;strokeColor=#6c8ebf;" vertex="1" parent="1">
          <mxGeometry x="2780" y="320" width="150" height="100" as="geometry" />
        </mxCell>
        <mxCell id="cmzhFVV2WVKwGKOXvyXr-59" value="预期开始时间：2021/5/19" style="text;strokeColor=none;fillColor=none;align=left;verticalAlign=top;spacingLeft=4;spacingRight=4;overflow=hidden;rotatable=0;points=[[0,0.5],[1,0.5]];portConstraint=eastwest;" vertex="1" parent="cmzhFVV2WVKwGKOXvyXr-58">
          <mxGeometry y="26" width="150" height="26" as="geometry" />
        </mxCell>
        <mxCell id="cmzhFVV2WVKwGKOXvyXr-60" value="预期结束时间：2021/5/19" style="text;strokeColor=none;fillColor=none;align=left;verticalAlign=top;spacingLeft=4;spacingRight=4;overflow=hidden;rotatable=0;points=[[0,0.5],[1,0.5]];portConstraint=eastwest;" vertex="1" parent="cmzhFVV2WVKwGKOXvyXr-58">
          <mxGeometry y="52" width="150" height="26" as="geometry" />
        </mxCell>
        <mxCell id="cmzhFVV2WVKwGKOXvyXr-61" value="预期投入天数：1" style="text;strokeColor=none;fillColor=none;align=left;verticalAlign=top;spacingLeft=4;spacingRight=4;overflow=hidden;rotatable=0;points=[[0,0.5],[1,0.5]];portConstraint=eastwest;" vertex="1" parent="cmzhFVV2WVKwGKOXvyXr-58">
          <mxGeometry y="78" width="150" height="22" as="geometry" />
        </mxCell>
        <mxCell id="cmzhFVV2WVKwGKOXvyXr-62" value="验收测试" style="swimlane;fontStyle=0;childLayout=stackLayout;horizontal=1;startSize=26;fillColor=#dae8fc;horizontalStack=0;resizeParent=1;resizeParentMax=0;resizeLast=0;collapsible=1;marginBottom=0;strokeColor=#6c8ebf;" vertex="1" parent="1">
          <mxGeometry x="2780" y="510" width="150" height="100" as="geometry" />
        </mxCell>
        <mxCell id="cmzhFVV2WVKwGKOXvyXr-63" value="预期开始时间：2021/5/20" style="text;strokeColor=none;fillColor=none;align=left;verticalAlign=top;spacingLeft=4;spacingRight=4;overflow=hidden;rotatable=0;points=[[0,0.5],[1,0.5]];portConstraint=eastwest;" vertex="1" parent="cmzhFVV2WVKwGKOXvyXr-62">
          <mxGeometry y="26" width="150" height="26" as="geometry" />
        </mxCell>
        <mxCell id="cmzhFVV2WVKwGKOXvyXr-64" value="预期结束时间：2021/5/21" style="text;strokeColor=none;fillColor=none;align=left;verticalAlign=top;spacingLeft=4;spacingRight=4;overflow=hidden;rotatable=0;points=[[0,0.5],[1,0.5]];portConstraint=eastwest;" vertex="1" parent="cmzhFVV2WVKwGKOXvyXr-62">
          <mxGeometry y="52" width="150" height="26" as="geometry" />
        </mxCell>
        <mxCell id="cmzhFVV2WVKwGKOXvyXr-65" value="预期投入天数：2" style="text;strokeColor=none;fillColor=none;align=left;verticalAlign=top;spacingLeft=4;spacingRight=4;overflow=hidden;rotatable=0;points=[[0,0.5],[1,0.5]];portConstraint=eastwest;" vertex="1" parent="cmzhFVV2WVKwGKOXvyXr-62">
          <mxGeometry y="78" width="150" height="22" as="geometry" />
        </mxCell>
        <mxCell id="cmzhFVV2WVKwGKOXvyXr-108" style="edgeStyle=orthogonalEdgeStyle;rounded=0;orthogonalLoop=1;jettySize=auto;html=1;exitX=1;exitY=0.5;exitDx=0;exitDy=0;entryX=0;entryY=0.5;entryDx=0;entryDy=0;" edge="1" parent="1" source="cmzhFVV2WVKwGKOXvyXr-67" target="cmzhFVV2WVKwGKOXvyXr-69">
          <mxGeometry relative="1" as="geometry">
            <mxPoint x="3330" y="369" as="targetPoint" />
          </mxGeometry>
        </mxCell>
        <mxCell id="cmzhFVV2WVKwGKOXvyXr-67" value="测试结束" style="rounded=1;whiteSpace=wrap;html=1;fillColor=#dae8fc;strokeColor=#6c8ebf;" vertex="1" parent="1">
          <mxGeometry x="3090" y="340" width="120" height="60" as="geometry" />
        </mxCell>
        <mxCell id="cmzhFVV2WVKwGKOXvyXr-68" value="部署" style="swimlane;fontStyle=0;childLayout=stackLayout;horizontal=1;startSize=26;fillColor=#dae8fc;horizontalStack=0;resizeParent=1;resizeParentMax=0;resizeLast=0;collapsible=1;marginBottom=0;strokeColor=#6c8ebf;" vertex="1" parent="1">
          <mxGeometry x="3340" y="320" width="150" height="100" as="geometry" />
        </mxCell>
        <mxCell id="cmzhFVV2WVKwGKOXvyXr-69" value="预期开始时间：2021/5/22" style="text;strokeColor=none;fillColor=none;align=left;verticalAlign=top;spacingLeft=4;spacingRight=4;overflow=hidden;rotatable=0;points=[[0,0.5],[1,0.5]];portConstraint=eastwest;" vertex="1" parent="cmzhFVV2WVKwGKOXvyXr-68">
          <mxGeometry y="26" width="150" height="26" as="geometry" />
        </mxCell>
        <mxCell id="cmzhFVV2WVKwGKOXvyXr-70" value="预期结束时间：2021/5/24" style="text;strokeColor=none;fillColor=none;align=left;verticalAlign=top;spacingLeft=4;spacingRight=4;overflow=hidden;rotatable=0;points=[[0,0.5],[1,0.5]];portConstraint=eastwest;" vertex="1" parent="cmzhFVV2WVKwGKOXvyXr-68">
          <mxGeometry y="52" width="150" height="26" as="geometry" />
        </mxCell>
        <mxCell id="cmzhFVV2WVKwGKOXvyXr-71" value="预期投入天数：3" style="text;strokeColor=none;fillColor=none;align=left;verticalAlign=top;spacingLeft=4;spacingRight=4;overflow=hidden;rotatable=0;points=[[0,0.5],[1,0.5]];portConstraint=eastwest;" vertex="1" parent="cmzhFVV2WVKwGKOXvyXr-68">
          <mxGeometry y="78" width="150" height="22" as="geometry" />
        </mxCell>
        <mxCell id="cmzhFVV2WVKwGKOXvyXr-72" value="部署到微信平台上" style="swimlane;fontStyle=0;childLayout=stackLayout;horizontal=1;startSize=26;fillColor=#dae8fc;horizontalStack=0;resizeParent=1;resizeParentMax=0;resizeLast=0;collapsible=1;marginBottom=0;strokeColor=#6c8ebf;" vertex="1" parent="1">
          <mxGeometry x="3620" y="200" width="150" height="100" as="geometry" />
        </mxCell>
        <mxCell id="cmzhFVV2WVKwGKOXvyXr-73" value="预期开始时间：2021/5/22" style="text;strokeColor=none;fillColor=none;align=left;verticalAlign=top;spacingLeft=4;spacingRight=4;overflow=hidden;rotatable=0;points=[[0,0.5],[1,0.5]];portConstraint=eastwest;" vertex="1" parent="cmzhFVV2WVKwGKOXvyXr-72">
          <mxGeometry y="26" width="150" height="26" as="geometry" />
        </mxCell>
        <mxCell id="cmzhFVV2WVKwGKOXvyXr-74" value="预期结束时间：2021/5/23" style="text;strokeColor=none;fillColor=none;align=left;verticalAlign=top;spacingLeft=4;spacingRight=4;overflow=hidden;rotatable=0;points=[[0,0.5],[1,0.5]];portConstraint=eastwest;" vertex="1" parent="cmzhFVV2WVKwGKOXvyXr-72">
          <mxGeometry y="52" width="150" height="26" as="geometry" />
        </mxCell>
        <mxCell id="cmzhFVV2WVKwGKOXvyXr-75" value="预期投入天数：2" style="text;strokeColor=none;fillColor=none;align=left;verticalAlign=top;spacingLeft=4;spacingRight=4;overflow=hidden;rotatable=0;points=[[0,0.5],[1,0.5]];portConstraint=eastwest;" vertex="1" parent="cmzhFVV2WVKwGKOXvyXr-72">
          <mxGeometry y="78" width="150" height="22" as="geometry" />
        </mxCell>
        <mxCell id="cmzhFVV2WVKwGKOXvyXr-76" value="培训" style="swimlane;fontStyle=0;childLayout=stackLayout;horizontal=1;startSize=26;fillColor=#dae8fc;horizontalStack=0;resizeParent=1;resizeParentMax=0;resizeLast=0;collapsible=1;marginBottom=0;strokeColor=#6c8ebf;" vertex="1" parent="1">
          <mxGeometry x="3620" y="430" width="150" height="100" as="geometry" />
        </mxCell>
        <mxCell id="cmzhFVV2WVKwGKOXvyXr-77" value="预期开始时间：2021/5/24" style="text;strokeColor=none;fillColor=none;align=left;verticalAlign=top;spacingLeft=4;spacingRight=4;overflow=hidden;rotatable=0;points=[[0,0.5],[1,0.5]];portConstraint=eastwest;" vertex="1" parent="cmzhFVV2WVKwGKOXvyXr-76">
          <mxGeometry y="26" width="150" height="26" as="geometry" />
        </mxCell>
        <mxCell id="cmzhFVV2WVKwGKOXvyXr-78" value="预期结束时间：2021/5/24" style="text;strokeColor=none;fillColor=none;align=left;verticalAlign=top;spacingLeft=4;spacingRight=4;overflow=hidden;rotatable=0;points=[[0,0.5],[1,0.5]];portConstraint=eastwest;" vertex="1" parent="cmzhFVV2WVKwGKOXvyXr-76">
          <mxGeometry y="52" width="150" height="26" as="geometry" />
        </mxCell>
        <mxCell id="cmzhFVV2WVKwGKOXvyXr-79" value="预期投入天数：1" style="text;strokeColor=none;fillColor=none;align=left;verticalAlign=top;spacingLeft=4;spacingRight=4;overflow=hidden;rotatable=0;points=[[0,0.5],[1,0.5]];portConstraint=eastwest;" vertex="1" parent="cmzhFVV2WVKwGKOXvyXr-76">
          <mxGeometry y="78" width="150" height="22" as="geometry" />
        </mxCell>
        <mxCell id="cmzhFVV2WVKwGKOXvyXr-113" style="edgeStyle=orthogonalEdgeStyle;rounded=0;orthogonalLoop=1;jettySize=auto;html=1;exitX=1;exitY=0.5;exitDx=0;exitDy=0;entryX=0;entryY=0.5;entryDx=0;entryDy=0;" edge="1" parent="1" source="cmzhFVV2WVKwGKOXvyXr-80" target="cmzhFVV2WVKwGKOXvyXr-83">
          <mxGeometry relative="1" as="geometry" />
        </mxCell>
        <mxCell id="cmzhFVV2WVKwGKOXvyXr-80" value="部署结束" style="rounded=1;whiteSpace=wrap;html=1;fillColor=#dae8fc;strokeColor=#6c8ebf;" vertex="1" parent="1">
          <mxGeometry x="3920" y="340" width="120" height="60" as="geometry" />
        </mxCell>
        <mxCell id="cmzhFVV2WVKwGKOXvyXr-81" value="运维" style="swimlane;fontStyle=0;childLayout=stackLayout;horizontal=1;startSize=26;fillColor=#dae8fc;horizontalStack=0;resizeParent=1;resizeParentMax=0;resizeLast=0;collapsible=1;marginBottom=0;strokeColor=#6c8ebf;" vertex="1" parent="1">
          <mxGeometry x="4220" y="310" width="150" height="100" as="geometry" />
        </mxCell>
        <mxCell id="cmzhFVV2WVKwGKOXvyXr-82" value="预期开始时间：2021/5/25" style="text;strokeColor=none;fillColor=none;align=left;verticalAlign=top;spacingLeft=4;spacingRight=4;overflow=hidden;rotatable=0;points=[[0,0.5],[1,0.5]];portConstraint=eastwest;" vertex="1" parent="cmzhFVV2WVKwGKOXvyXr-81">
          <mxGeometry y="26" width="150" height="26" as="geometry" />
        </mxCell>
        <mxCell id="cmzhFVV2WVKwGKOXvyXr-83" value="预期结束时间：2021/5/30" style="text;strokeColor=none;fillColor=none;align=left;verticalAlign=top;spacingLeft=4;spacingRight=4;overflow=hidden;rotatable=0;points=[[0,0.5],[1,0.5]];portConstraint=eastwest;" vertex="1" parent="cmzhFVV2WVKwGKOXvyXr-81">
          <mxGeometry y="52" width="150" height="26" as="geometry" />
        </mxCell>
        <mxCell id="cmzhFVV2WVKwGKOXvyXr-84" value="预期投入天数：6" style="text;strokeColor=none;fillColor=none;align=left;verticalAlign=top;spacingLeft=4;spacingRight=4;overflow=hidden;rotatable=0;points=[[0,0.5],[1,0.5]];portConstraint=eastwest;" vertex="1" parent="cmzhFVV2WVKwGKOXvyXr-81">
          <mxGeometry y="78" width="150" height="22" as="geometry" />
        </mxCell>
        <mxCell id="cmzhFVV2WVKwGKOXvyXr-85" style="edgeStyle=orthogonalEdgeStyle;rounded=0;orthogonalLoop=1;jettySize=auto;html=1;exitX=1;exitY=0.5;exitDx=0;exitDy=0;entryX=0;entryY=0.5;entryDx=0;entryDy=0;" edge="1" parent="1" source="cmzhFVV2WVKwGKOXvyXr-4" target="cmzhFVV2WVKwGKOXvyXr-8">
          <mxGeometry relative="1" as="geometry" />
        </mxCell>
        <mxCell id="cmzhFVV2WVKwGKOXvyXr-86" style="edgeStyle=orthogonalEdgeStyle;rounded=0;orthogonalLoop=1;jettySize=auto;html=1;exitX=1;exitY=0.5;exitDx=0;exitDy=0;entryX=0;entryY=0.5;entryDx=0;entryDy=0;" edge="1" parent="1" source="cmzhFVV2WVKwGKOXvyXr-8" target="cmzhFVV2WVKwGKOXvyXr-12">
          <mxGeometry relative="1" as="geometry" />
        </mxCell>
        <mxCell id="cmzhFVV2WVKwGKOXvyXr-88" style="edgeStyle=orthogonalEdgeStyle;rounded=0;orthogonalLoop=1;jettySize=auto;html=1;exitX=1;exitY=0.5;exitDx=0;exitDy=0;entryX=0;entryY=0.5;entryDx=0;entryDy=0;" edge="1" parent="1" source="cmzhFVV2WVKwGKOXvyXr-11" target="cmzhFVV2WVKwGKOXvyXr-19">
          <mxGeometry relative="1" as="geometry" />
        </mxCell>
        <mxCell id="cmzhFVV2WVKwGKOXvyXr-89" style="edgeStyle=orthogonalEdgeStyle;rounded=0;orthogonalLoop=1;jettySize=auto;html=1;exitX=1;exitY=0.5;exitDx=0;exitDy=0;entryX=0;entryY=0.5;entryDx=0;entryDy=0;" edge="1" parent="1" source="cmzhFVV2WVKwGKOXvyXr-12" target="cmzhFVV2WVKwGKOXvyXr-25">
          <mxGeometry relative="1" as="geometry" />
        </mxCell>
        <mxCell id="cmzhFVV2WVKwGKOXvyXr-90" style="edgeStyle=orthogonalEdgeStyle;rounded=0;orthogonalLoop=1;jettySize=auto;html=1;entryX=0;entryY=0.5;entryDx=0;entryDy=0;exitX=0.987;exitY=1.116;exitDx=0;exitDy=0;exitPerimeter=0;" edge="1" parent="1" source="cmzhFVV2WVKwGKOXvyXr-13" target="cmzhFVV2WVKwGKOXvyXr-29">
          <mxGeometry relative="1" as="geometry">
            <mxPoint x="610" y="430" as="sourcePoint" />
            <Array as="points">
              <mxPoint x="610" y="423" />
              <mxPoint x="610" y="649" />
            </Array>
          </mxGeometry>
        </mxCell>
        <mxCell id="cmzhFVV2WVKwGKOXvyXr-91" style="edgeStyle=orthogonalEdgeStyle;rounded=0;orthogonalLoop=1;jettySize=auto;html=1;exitX=1;exitY=0.5;exitDx=0;exitDy=0;entryX=0;entryY=0;entryDx=0;entryDy=0;" edge="1" parent="1" source="cmzhFVV2WVKwGKOXvyXr-15" target="cmzhFVV2WVKwGKOXvyXr-30">
          <mxGeometry relative="1" as="geometry" />
        </mxCell>
        <mxCell id="cmzhFVV2WVKwGKOXvyXr-92" style="edgeStyle=orthogonalEdgeStyle;rounded=0;orthogonalLoop=1;jettySize=auto;html=1;exitX=1;exitY=0.5;exitDx=0;exitDy=0;entryX=0;entryY=0.25;entryDx=0;entryDy=0;" edge="1" parent="1" source="cmzhFVV2WVKwGKOXvyXr-19" target="cmzhFVV2WVKwGKOXvyXr-30">
          <mxGeometry relative="1" as="geometry" />
        </mxCell>
        <mxCell id="cmzhFVV2WVKwGKOXvyXr-93" style="edgeStyle=orthogonalEdgeStyle;rounded=0;orthogonalLoop=1;jettySize=auto;html=1;exitX=1;exitY=0.5;exitDx=0;exitDy=0;entryX=0;entryY=0.75;entryDx=0;entryDy=0;" edge="1" parent="1" source="cmzhFVV2WVKwGKOXvyXr-24" target="cmzhFVV2WVKwGKOXvyXr-30">
          <mxGeometry relative="1" as="geometry" />
        </mxCell>
        <mxCell id="cmzhFVV2WVKwGKOXvyXr-94" style="edgeStyle=orthogonalEdgeStyle;rounded=0;orthogonalLoop=1;jettySize=auto;html=1;exitX=1;exitY=0.5;exitDx=0;exitDy=0;entryX=0;entryY=1;entryDx=0;entryDy=0;" edge="1" parent="1" source="cmzhFVV2WVKwGKOXvyXr-29" target="cmzhFVV2WVKwGKOXvyXr-30">
          <mxGeometry relative="1" as="geometry" />
        </mxCell>
        <mxCell id="cmzhFVV2WVKwGKOXvyXr-96" style="edgeStyle=orthogonalEdgeStyle;rounded=0;orthogonalLoop=1;jettySize=auto;html=1;exitX=1;exitY=0.5;exitDx=0;exitDy=0;entryX=0;entryY=0.5;entryDx=0;entryDy=0;" edge="1" parent="1" source="cmzhFVV2WVKwGKOXvyXr-33" target="cmzhFVV2WVKwGKOXvyXr-37">
          <mxGeometry relative="1" as="geometry" />
        </mxCell>
        <mxCell id="cmzhFVV2WVKwGKOXvyXr-97" style="edgeStyle=orthogonalEdgeStyle;rounded=0;orthogonalLoop=1;jettySize=auto;html=1;exitX=1;exitY=0.5;exitDx=0;exitDy=0;entryX=0;entryY=0.5;entryDx=0;entryDy=0;" edge="1" parent="1" source="cmzhFVV2WVKwGKOXvyXr-36" target="cmzhFVV2WVKwGKOXvyXr-40">
          <mxGeometry relative="1" as="geometry" />
        </mxCell>
        <mxCell id="cmzhFVV2WVKwGKOXvyXr-98" style="edgeStyle=orthogonalEdgeStyle;rounded=0;orthogonalLoop=1;jettySize=auto;html=1;exitX=1;exitY=0.5;exitDx=0;exitDy=0;entryX=-0.02;entryY=-0.146;entryDx=0;entryDy=0;entryPerimeter=0;" edge="1" parent="1" source="cmzhFVV2WVKwGKOXvyXr-37" target="cmzhFVV2WVKwGKOXvyXr-46">
          <mxGeometry relative="1" as="geometry" />
        </mxCell>
        <mxCell id="cmzhFVV2WVKwGKOXvyXr-99" style="edgeStyle=orthogonalEdgeStyle;rounded=0;orthogonalLoop=1;jettySize=auto;html=1;exitX=1;exitY=0.5;exitDx=0;exitDy=0;entryX=0;entryY=0.25;entryDx=0;entryDy=0;" edge="1" parent="1" source="cmzhFVV2WVKwGKOXvyXr-40" target="cmzhFVV2WVKwGKOXvyXr-49">
          <mxGeometry relative="1" as="geometry" />
        </mxCell>
        <mxCell id="cmzhFVV2WVKwGKOXvyXr-100" style="edgeStyle=orthogonalEdgeStyle;rounded=0;orthogonalLoop=1;jettySize=auto;html=1;exitX=1;exitY=0.5;exitDx=0;exitDy=0;entryX=0;entryY=0.75;entryDx=0;entryDy=0;" edge="1" parent="1" source="cmzhFVV2WVKwGKOXvyXr-45" target="cmzhFVV2WVKwGKOXvyXr-49">
          <mxGeometry relative="1" as="geometry" />
        </mxCell>
        <mxCell id="cmzhFVV2WVKwGKOXvyXr-103" style="edgeStyle=orthogonalEdgeStyle;rounded=0;orthogonalLoop=1;jettySize=auto;html=1;exitX=1;exitY=0.5;exitDx=0;exitDy=0;entryX=0;entryY=0.5;entryDx=0;entryDy=0;" edge="1" parent="1" source="cmzhFVV2WVKwGKOXvyXr-52" target="cmzhFVV2WVKwGKOXvyXr-60">
          <mxGeometry relative="1" as="geometry" />
        </mxCell>
        <mxCell id="cmzhFVV2WVKwGKOXvyXr-104" style="edgeStyle=orthogonalEdgeStyle;rounded=0;orthogonalLoop=1;jettySize=auto;html=1;exitX=1;exitY=0.5;exitDx=0;exitDy=0;entryX=0;entryY=0.5;entryDx=0;entryDy=0;" edge="1" parent="1" source="cmzhFVV2WVKwGKOXvyXr-53" target="cmzhFVV2WVKwGKOXvyXr-65">
          <mxGeometry relative="1" as="geometry" />
        </mxCell>
        <mxCell id="cmzhFVV2WVKwGKOXvyXr-105" style="edgeStyle=orthogonalEdgeStyle;rounded=0;orthogonalLoop=1;jettySize=auto;html=1;exitX=1;exitY=0.5;exitDx=0;exitDy=0;entryX=0;entryY=0.25;entryDx=0;entryDy=0;" edge="1" parent="1" source="cmzhFVV2WVKwGKOXvyXr-55" target="cmzhFVV2WVKwGKOXvyXr-67">
          <mxGeometry relative="1" as="geometry" />
        </mxCell>
        <mxCell id="cmzhFVV2WVKwGKOXvyXr-106" style="edgeStyle=orthogonalEdgeStyle;rounded=0;orthogonalLoop=1;jettySize=auto;html=1;exitX=1;exitY=0.5;exitDx=0;exitDy=0;entryX=0;entryY=0.75;entryDx=0;entryDy=0;" edge="1" parent="1" source="cmzhFVV2WVKwGKOXvyXr-60" target="cmzhFVV2WVKwGKOXvyXr-67">
          <mxGeometry relative="1" as="geometry" />
        </mxCell>
        <mxCell id="cmzhFVV2WVKwGKOXvyXr-107" style="edgeStyle=orthogonalEdgeStyle;rounded=0;orthogonalLoop=1;jettySize=auto;html=1;exitX=1;exitY=0.5;exitDx=0;exitDy=0;entryX=0;entryY=1;entryDx=0;entryDy=0;" edge="1" parent="1" source="cmzhFVV2WVKwGKOXvyXr-65" target="cmzhFVV2WVKwGKOXvyXr-67">
          <mxGeometry relative="1" as="geometry" />
        </mxCell>
        <mxCell id="cmzhFVV2WVKwGKOXvyXr-109" style="edgeStyle=orthogonalEdgeStyle;rounded=0;orthogonalLoop=1;jettySize=auto;html=1;exitX=1;exitY=0.5;exitDx=0;exitDy=0;entryX=0;entryY=0.5;entryDx=0;entryDy=0;" edge="1" parent="1" source="cmzhFVV2WVKwGKOXvyXr-69" target="cmzhFVV2WVKwGKOXvyXr-73">
          <mxGeometry relative="1" as="geometry" />
        </mxCell>
        <mxCell id="cmzhFVV2WVKwGKOXvyXr-110" style="edgeStyle=orthogonalEdgeStyle;rounded=0;orthogonalLoop=1;jettySize=auto;html=1;exitX=1;exitY=0.5;exitDx=0;exitDy=0;entryX=0;entryY=0.5;entryDx=0;entryDy=0;" edge="1" parent="1" source="cmzhFVV2WVKwGKOXvyXr-70" target="cmzhFVV2WVKwGKOXvyXr-78">
          <mxGeometry relative="1" as="geometry" />
        </mxCell>
        <mxCell id="cmzhFVV2WVKwGKOXvyXr-111" style="edgeStyle=orthogonalEdgeStyle;rounded=0;orthogonalLoop=1;jettySize=auto;html=1;exitX=1;exitY=0.5;exitDx=0;exitDy=0;entryX=0;entryY=0.25;entryDx=0;entryDy=0;" edge="1" parent="1" source="cmzhFVV2WVKwGKOXvyXr-73" target="cmzhFVV2WVKwGKOXvyXr-80">
          <mxGeometry relative="1" as="geometry" />
        </mxCell>
        <mxCell id="cmzhFVV2WVKwGKOXvyXr-112" style="edgeStyle=orthogonalEdgeStyle;rounded=0;orthogonalLoop=1;jettySize=auto;html=1;exitX=1;exitY=0.5;exitDx=0;exitDy=0;entryX=0;entryY=0.75;entryDx=0;entryDy=0;" edge="1" parent="1" source="cmzhFVV2WVKwGKOXvyXr-79" target="cmzhFVV2WVKwGKOXvyXr-80">
          <mxGeometry relative="1" as="geometry" />
        </mxCell>
      </root>
    </mxGraphModel>
  </diagram>
</mxfile>
